# xmcd
#
# Track frame offsets:
#	150
#	10533
#	21579
#	31261
#	41404
#	51618
#	62309
#	74042
#	84282
#	98511
#	119655
#	136781
#	149571
#	163194
#	172265
#	180668
#	200919
#	216586
#	230881
#	244344
#
# Disc length: 3446 seconds
#
# Revision: 0
# Processed by: cddbd v1.5.2PL0 Copyright (c) Steve Scherf et al.
# Submitted via: EasyCDDAExtractor 10.5.1.1
#
DISCID=340d7414
DTITLE=Various Artist - 01 Millennium Hits 1960/1969 Love
DYEAR=2000
DGENRE=Oldies
TTITLE0=Neil Sedaka - Oh Carol
TTITLE1=Fats Domino - There Goes My Heart Again
TTITLE2=Jewel Akens - The Birds And The Bees
TTITLE3=Beach Boys - Then I Kissed Her
TTITLE4=The Marcels - Blue Moon
TTITLE5=Richie Valens - Donna
TTITLE6=The Everly Brothers - Let It Be Me
TTITLE7=Don Partridge - Rosie
TTITLE8=The Seekers - The Carnival Is Over
TTITLE9=Peter Sarstedt - Where Do You Go To My Lovely
TTITLE10=Bobby Goldsboro - Honey
TTITLE11=Cilla Black - Anyone Who Had A Heart
TTITLE12=Joe Dolan - Make Me An Island
TTITLE13=Freddie and The Dreamers - I Love You Baby
TTITLE14=The Box Tops - The Letter
TTITLE15=The Animals - The House Of The Rising Sun
TTITLE16=Tommy James and The Shondells - Crimson and Clover
TTITLE17=Moody Blues - Go Now
TTITLE18=The Hollies - Sorry Suzanne
TTITLE19=Cilla Black - You 've Lost That Lovin' Feelin'
EXTD=The unique collection, Label - Disky, no. BX 856832 YEAR: 2000\n
EXTT0=
EXTT1=
EXTT2=
EXTT3=
EXTT4=
EXTT5=
EXTT6=
EXTT7=
EXTT8=
EXTT9=
EXTT10=
EXTT11=
EXTT12=
EXTT13=
EXTT14=
EXTT15=
EXTT16=
EXTT17=
EXTT18=
EXTT19=
PLAYORDER=
